<svg xmlns="http://www.w3.org/2000/svg" width="18" height="10" viewBox="0 0 20 10">
    <defs>
        <filter id="sb29kcirga" width="14" height="14" x="0" y="0" filterUnits="objectBoundingBox">
            <feOffset dy="5" in="SourceAlpha" result="shadowOffsetOuter1"/>
            <feGaussianBlur in="shadowOffsetOuter1" result="shadowBlurOuter1" stdDeviation="5"/>
            <feColorMatrix in="shadowBlurOuter1" result="shadowMatrixOuter1" values="0 0 0 0 0.901960784 0 0 0 0 0.901960784 0 0 0 0 0.901960784 0 0 0 1 0"/>
            <feMerge>
                <feMergeNode in="shadowMatrixOuter1"/>
                <feMergeNode in="SourceGraphic"/>
            </feMerge>
        </filter>
    </defs>
    <g fill="none" fill-rule="evenodd">
        <g fill="#F16222">
            <g filter="url(#sb29kcirga)" transform="translate(-15 -165) translate(0 0)">
                <g>
                    <g>
                        <path d="M3.441 5.456c.629 0 1.164-.21 1.606-.633.447-.417.67-.921.67-1.512 0-.592-.223-1.096-.67-1.513-.442-.422-.977-.633-1.606-.633-.628 0-1.165.211-1.612.633-.446.417-.67.922-.67 1.513 0 .59.224 1.095.67 1.513.447.421.984.632 1.612.632M6.293.006c.316-.006.577.245.583.56V5.91c-.002.462-.097.92-.279 1.345-.176.411-.429.786-.744 1.104-.637.644-1.505 1.008-2.412 1.01-1.017 0-1.922-.283-2.716-.849-.125-.09-.21-.226-.235-.378-.047-.316.164-.612.477-.67.153-.027.31.012.434.106.591.421 1.271.632 2.04.632.628 0 1.164-.23 1.606-.688.446-.455.67-1.005.67-1.65v-.086c-.653.554-1.412.83-2.276.83-.459.002-.914-.086-1.34-.26-.406-.161-.777-.401-1.09-.707C.697 5.35.446 4.991.273 4.594c-.364-.817-.364-1.75 0-2.567.173-.397.424-.755.738-1.054.313-.305.684-.546 1.091-.707.425-.173.88-.262 1.34-.26.863 0 1.622.277 2.275.83V.59c-.003-.155.058-.305.167-.416.109-.108.256-.168.41-.167M13.292 3.427c0 1.307-1.06 2.367-2.367 2.367s-2.367-1.06-2.367-2.367c0-1.308 1.06-2.368 2.367-2.368 1.308 0 2.367 1.06 2.367 2.368m4.653-.011c0-.321-.245-.59-.565-.618l-2.996-.248c-.088-.007-.164-.066-.19-.15l-.002-.005c-.037-.116.026-.24.142-.278.028-.009.057-.012.086-.01l.685.062c.254.023.478-.165.501-.419.003-.03.003-.061 0-.092-.023-.207-.19-.37-.396-.407l-.284-.05C14.06 1.044 13.23.742 12.44.352 10.74-.483 8.687.216 7.85 1.915c-.267.543-.386 1.149-.343 1.753.115 1.685 1.477 3.052 3.16 3.175.552.042 1.105-.051 1.613-.27.9-.389 1.833-.701 2.8-.873l.725-.128c.251-.046.418-.286.373-.537-.043-.235-.258-.4-.496-.378l-.705.063c-.13.012-.245-.084-.257-.214-.003-.032 0-.063.01-.093l.001-.003c.029-.09.109-.154.203-.162l2.445-.214c.32-.029.565-.297.565-.618" transform="translate(15 97) translate(0 68)"/>
                        <path d="M10.929 4.925c-.828 0-1.499-.67-1.499-1.498s.671-1.5 1.499-1.5c.828 0 1.499.672 1.499 1.5 0 .827-.671 1.498-1.5 1.498M17.276 4.876c-.036-.22-.244-.369-.464-.332-.22.037-.368.245-.332.465.037.22.245.368.465.331.22-.037.368-.245.331-.464M16.712 1.749c-.037-.22-.245-.369-.465-.332-.22.037-.368.245-.33.465.036.22.244.368.464.331.22-.036.368-.245.331-.464" transform="translate(15 97) translate(0 68)"/>
                    </g>
                </g>
            </g>
        </g>
    </g>
</svg>